<svg id="Camada_1" data-name="Camada 1" xmlns="http://www.w3.org/2000/svg" viewBox="0 0 345.3 66.6"><defs><style>.cls-1{fill:#279d66;}.cls-2{fill:#cdcccc;}</style></defs><rect class="cls-1" x="228.4" y="35.3" width="8" height="35.55" transform="translate(54.1 -112.9) rotate(30)"/><path class="cls-2" d="M266.3,47.2a23.2,23.2,0,0,1-23.2,23.2,22.4,22.4,0,0,1-16.3-6.8A22.4,22.4,0,0,1,220,47.2V27.3a22.6,22.6,0,0,1,6.8-16.4,23.3,23.3,0,0,1,32.7,0,22.2,22.2,0,0,1,6.8,16.4Zm-8.6-19.9a13.6,13.6,0,0,0-4.3-10.2,14.4,14.4,0,0,0-20.5,0,14,14,0,0,0-4.3,10.2V47.2a14.2,14.2,0,0,0,4.3,10.3,14.6,14.6,0,0,0,24.8-10.3Z" transform="translate(-3.6 -3.8)"/><path class="cls-2" d="M56.7,65,3.6,45.6,56.7,26.3v9L28.3,45.6,56.7,56Z" transform="translate(-3.6 -3.8)"/><path class="cls-1" d="M103.3,30.3V4.2h8.5V69.3h-8.5V64.1a19.2,19.2,0,0,1-14.2,6.3,22,22,0,0,1-16.4-6.8,22.4,22.4,0,0,1-6.8-16.4A23.2,23.2,0,0,1,89.1,24,19.2,19.2,0,0,1,103.3,30.3Zm0,20.1V44.1A13.6,13.6,0,0,0,99.4,37a14,14,0,0,0-10.3-4.3A13.8,13.8,0,0,0,78.8,37a14,14,0,0,0-4.3,10.2A14.6,14.6,0,0,0,99.4,57.5,14,14,0,0,0,103.3,50.4Z" transform="translate(-3.6 -3.8)"/><path class="cls-1" d="M137,59.9c1.5,1.2,4,1.8,7.7,1.8a14.3,14.3,0,0,0,10.4-4.2l2.1-2.5,8.4,3a51.9,51.9,0,0,1-4.4,5.6,22.3,22.3,0,0,1-16.5,6.8,22,22,0,0,1-16.3-6.8,22,22,0,0,1-6.8-16.4,22,22,0,0,1,6.8-16.4A22.4,22.4,0,0,1,144.7,24a22.8,22.8,0,0,1,14.5,5l2,1.8,2.3,2.6-4.3,4.2Zm14.1-26.1c-.9-.8-3-1.1-6.4-1.1a13.9,13.9,0,0,0-10.2,4.2,14.4,14.4,0,0,0-4.3,10.3c0,3.3.4,5.4,1.1,6.4Z" transform="translate(-3.6 -3.8)"/><path class="cls-1" d="M190.5,69.3l-20-41.9h9.6l12.6,27.2,12.6-27.2h9.5l-20,41.9Z" transform="translate(-3.6 -3.8)"/><path class="cls-2" d="M284.8,4.2V69.3h-8.4V4.2Z" transform="translate(-3.6 -3.8)"/><path class="cls-1" d="M295.8,56l28.4-10.4L295.8,35.3v-9l53.1,19.3L295.8,65Z" transform="translate(-3.6 -3.8)"/><rect class="cls-1" x="246.2" y="3.3" width="8" height="37.59" transform="translate(41 -126) rotate(30)"/></svg>